<svg id="Capa_1" enable-background="new 0 0 511.992 511.992" viewBox="0 0 511.992 511.992" xmlns="http://www.w3.org/2000/svg"><g><g><path clip-rule="evenodd" d="m7.5 228.627c0 9.836 8.05 17.887 17.886 17.887h17.858l13.918-44.079-13.918-44.079h-17.858c-9.836 0-17.886 8.051-17.886 17.887z" fill="#f9f7f8" fill-rule="evenodd"/></g><g><path clip-rule="evenodd" d="m66.176 131.227c53.376 3.515 95.356-13.238 132.66-30.615v-3.912c0-21.459-17.546-39.005-38.976-39.005h-136.373c-13.323 0-20.919 10.63-12.387 23.755 13.578 20.864 32.825 37.22 55.076 49.777z" fill="#ffe07d" fill-rule="evenodd"/></g><g><path clip-rule="evenodd" d="m456.134 202.435c0 13.351 10.828 24.18 24.179 24.18 13.209 0 23.924-10.573 24.179-23.726v-.907c-.255-13.153-10.97-23.726-24.179-23.726-13.351-.001-24.179 10.827-24.179 24.179z" fill="#eb5468" fill-rule="evenodd"/></g><g><path clip-rule="evenodd" d="m64.702 409.594c28.601 16.356 28.63 21.005 69.278 44.703h49.606c13.521 0 22.79-14.995 11.679-26.504l-32.485-33.676c-7.71-7.965-11.99-19.644-13.096-33.988-1.276-16.555 1.644-36.624 8.362-58.565-20.126-35.292-52.27-42.832-93.571-28.744l6.916 45.865c5.018 33.308 1.843 60.436-6.689 90.909z" fill="#ffe07d" fill-rule="evenodd"/></g><g><path clip-rule="evenodd" d="m149.684 360.128h22.677c14.712 0 26.787-12.076 26.787-26.816v-29.027c-16.809-6.718-28.431-4.422-45.099-6.718-6.746 21.94-5.641 46.007-4.365 62.561z" fill="#f9f7f8" fill-rule="evenodd"/></g><g><path clip-rule="evenodd" d="m85.083 454.297h48.897v-19.729c0-13.748-11.253-24.974-24.973-24.974h-44.305c-.85 3.09-1.786 6.236-2.75 9.411-5.895 19.219-2.55 35.292 23.131 35.292z" fill="#365e7d" fill-rule="evenodd"/></g><g><path clip-rule="evenodd" d="m198.836 96.701c0-21.459-17.546-39.005-38.976-39.005h-11.225c6.038 6.86 9.581 12.756 9.581 22.564 0 6.208-3.657 4.11-10.658 4.876-60.972 6.576-104.994 30.36-103.208 31.72 6.86 5.273 14.173 10.035 21.827 14.372 43.256-20.637 87.958-30.841 132.66-30.615v-3.912z" fill="#ffd064" fill-rule="evenodd"/></g><g><path clip-rule="evenodd" d="m43.244 246.514v-44.079-44.08h-16.327v44.08 44.079z" fill="#dddaec" fill-rule="evenodd"/></g><g><path clip-rule="evenodd" d="m183.586 454.297c13.521 0 22.79-14.995 11.679-26.504l-32.485-33.676c-7.71-7.965-11.99-19.644-13.096-33.988-1.276-16.555 1.644-36.624 8.362-58.565-9.354-1.276-18.68-3.033-28.006-5.244-6.491 50.486-11.112 82.546 36.113 131.473 11.112 11.509 1.842 26.504-11.707 26.504z" fill="#ffd064" fill-rule="evenodd"/></g><g><path clip-rule="evenodd" d="m199.148 333.312v-29.027c-6.264.028-12.529-.142-18.793-.51v29.169c0 14.939-12.047 27.185-26.787 27.185h18.793c14.711-.001 26.787-12.076 26.787-26.817z" fill="#dddaec" fill-rule="evenodd"/></g><g><path clip-rule="evenodd" d="m504.492 201.981c-.255-13.153-10.97-23.726-24.179-23.726-2.296 0-4.479.312-6.576.907 7.852 3.884 13.266 11.906 13.436 21.232v.879c-.198 10.885-7.568 20.013-17.603 22.848 3.231 1.587 6.888 2.495 10.743 2.495 13.209 0 23.924-10.573 24.179-23.726z" fill="#e5384f" fill-rule="evenodd"/></g><g><path clip-rule="evenodd" d="m43.244 202.435v44.079c-.085 12.841 2.239 16.583 12.16 21.77 3.005 1.559 6.038 3.061 9.071 4.536 30.614 14.825 61.993 24.407 93.571 28.744 13.663 1.899 27.382 2.778 41.102 2.721 47.395-.283 94.789-12.303 140.37-36.001 9.921-5.187 12.246-8.929 12.16-21.77v-44.079-44.079c.085-12.813-2.239-16.583-12.16-21.77-45.666-23.755-93.145-35.745-140.682-35.972-44.702-.227-89.404 9.978-132.66 30.615-3.6 1.701-7.2 3.515-10.772 5.358-9.921 5.187-12.246 8.958-12.16 21.77v44.078z" fill="#eb5468" fill-rule="evenodd"/></g><g><path clip-rule="evenodd" d="m80.434 202.435c0 20.07 16.271 36.341 36.34 36.341s36.34-16.271 36.34-36.341-16.271-36.341-36.34-36.341-36.34 16.271-36.34 36.341z" fill="#f9f7f8" fill-rule="evenodd"/></g><g><path clip-rule="evenodd" d="m196.653 243.708c0 10.091 8.249 18.369 18.34 18.369 10.12 0 18.368-8.277 18.368-18.369v-82.546c0-10.092-8.249-18.369-18.368-18.369-10.091 0-18.34 8.277-18.34 18.369z" fill="#a7e9a6" fill-rule="evenodd"/></g><g><path clip-rule="evenodd" d="m267.037 221.937c0 10.091 8.249 18.369 18.34 18.369 10.12 0 18.368-8.277 18.368-18.369v-39.005c0-10.091-8.249-18.369-18.368-18.369-10.091 0-18.34 8.277-18.34 18.369z" fill="#a7e9a6" fill-rule="evenodd"/></g><g><path clip-rule="evenodd" d="m318.797 254.281c-57.883 30.104-119.592 31.805-181.472 23.301v-.028c-32.059-4.394-63.637-14.173-94.052-28.971.17 11.197 2.75 14.797 12.132 19.701 3.005 1.559 6.038 3.061 9.071 4.536 6.038 2.92 12.104 5.641 18.198 8.164.312.113.624.255.935.369 24.491 10.035 49.407 16.781 74.437 20.211 2.806.397 5.613.737 8.419 1.049 1.02.113 2.041.198 3.061.312 9.893.964 19.757 1.417 29.622 1.361 15.052-.113 30.104-1.361 45.099-3.827 32.23-5.273 64.176-15.988 95.271-32.174 9.921-5.187 12.246-8.929 12.16-21.77v-44.079-44.079c.085-12.813-2.239-16.583-12.16-21.77-2.863-1.474-5.726-2.92-8.589-4.309.028.68.028 1.361 0 2.098v98.137c.113 12.839-2.211 16.581-12.132 21.768z" fill="#e5384f" fill-rule="evenodd"/></g><g><path clip-rule="evenodd" d="m153.114 202.435c0-20.07-16.271-36.341-36.34-36.341-2.551 0-5.046.255-7.455.765 14.74 4.649 25.426 18.397 25.426 34.668 0 17.518-12.416 32.145-28.913 35.575 3.458 1.077 7.115 1.672 10.942 1.672 20.069.001 36.34-16.27 36.34-36.339z" fill="#dddaec" fill-rule="evenodd"/></g><g><path clip-rule="evenodd" d="m233.362 243.708v-82.546c0-10.092-8.249-18.369-18.368-18.369-3.005 0-5.868.765-8.39 2.069 5.046 3.26 8.39 8.958 8.39 15.392v82.546c0 7.058-4.053 13.238-9.949 16.299 2.863 1.871 6.293 2.976 9.949 2.976 10.119.002 18.368-8.276 18.368-18.367z" fill="#7fdbae" fill-rule="evenodd"/></g><g><path d="m480.313 170.755c-14.884 0-27.396 10.321-30.774 24.18h-17.709v-46.416c0-4.142-3.357-7.5-7.5-7.5s-7.5 3.358-7.5 7.5v46.416h-21.34v-73.884c0-4.142-3.357-7.5-7.5-7.5s-7.5 3.358-7.5 7.5v73.884h-21.311v-36.529c.103-15.463-3.528-21.848-16.202-28.475-13.963-7.258-28.2-13.499-42.317-18.549-3.899-1.396-8.192.635-9.588 4.535s.635 8.193 4.535 9.588c13.479 4.822 27.09 10.79 40.436 17.727 7.04 3.681 8.206 4.589 8.137 15.124v88.208c.069 10.485-1.097 11.394-8.124 15.068-45.34 23.598-91.963 35.395-138.597 35.393-46.623-.002-93.256-11.797-138.578-35.386-7.039-3.68-8.205-4.589-8.136-15.124v-88.208c-.069-10.485 1.097-11.394 8.121-15.067 65.191-33.913 135.499-43.472 203.32-27.64 4.031.94 8.067-1.565 9.009-5.599.941-4.034-1.565-8.067-5.599-9.008-19.664-4.59-39.519-7.143-59.399-7.706-1.755-24.053-21.859-43.09-46.337-43.09h-62.078c-4.143 0-7.5 3.358-7.5 7.5s3.357 7.5 7.5 7.5h62.078c16.184 0 29.55 12.292 31.281 28.038-42.133.946-84.185 10.87-124.573 29.535-21.137-12.474-37.678-27.733-49.18-45.406-2.307-3.549-2.986-6.77-1.865-8.837 1.115-2.054 4.167-3.33 7.965-3.33h39.656c4.143 0 7.5-3.358 7.5-7.5s-3.357-7.5-7.5-7.5h-39.657c-9.445 0-17.352 4.178-21.148 11.175-3.827 7.054-2.927 15.862 2.475 24.17 11.229 17.255 26.658 32.355 45.94 45.035-9.516 5.209-13.549 10.465-14.664 20.279h-10.704c-13.998-.001-25.386 11.388-25.386 25.386v52.385c0 13.999 11.388 25.387 25.386 25.387h10.706c1.165 10.224 5.473 15.498 15.85 20.923 1.898.988 3.801 1.949 5.706 2.898l6.328 41.967c5.61 37.261.382 65.729-9.192 97.003-4.417 14.397-3.66 25.752 2.251 33.749 5.515 7.46 14.951 11.243 28.049 11.243h98.503c9.891 0 18.679-5.648 22.391-14.39 3.566-8.402 1.579-17.682-5.313-24.822l-32.491-33.683c-4.967-5.137-8.303-12.352-10.012-21.274h14.201c18.906 0 34.287-15.394 34.287-34.316v-21.677c46.447-1.436 92.267-13.763 136.346-36.704 12.657-6.619 16.288-13.004 16.186-28.417v-36.58h21.311v73.912c0 4.142 3.357 7.5 7.5 7.5s7.5-3.358 7.5-7.5v-73.912h21.34v46.416c0 4.142 3.357 7.5 7.5 7.5s7.5-3.358 7.5-7.5v-46.416h17.709c3.378 13.859 15.89 24.18 30.774 24.18 17.468 0 31.68-14.212 31.68-31.68s-14.216-31.679-31.683-31.679zm-444.569 68.259h-10.358c-5.727 0-10.386-4.66-10.386-10.387v-52.385c0-5.727 4.659-10.387 10.386-10.387h10.358zm33.352 202.623c-2.844-3.848-2.834-11.104.029-20.437.425-1.389.812-2.74 1.214-4.106h38.667c9.635 0 17.474 7.839 17.474 17.474v12.229h-41.397c-5.553 0-12.835-.895-15.987-5.16zm120.773-8.635c2.693 2.79 3.488 5.744 2.3 8.543-1.109 2.614-4.194 5.251-8.583 5.251h-42.105v-12.229c0-17.906-14.567-32.474-32.474-32.474h-34.606c7.459-30.426 8.7-56.012 4.407-84.527l-4.842-32.114c24.425 10.629 49.32 18.057 74.5 22.253-11.253 41.613-8.162 73.954 8.917 91.617zm-17.509-80.374h-15.542c-.037-12.364 2.168-26.822 6.628-42.812 9.369 1.079 18.773 1.713 28.201 1.897v21.598c.001 10.652-8.652 19.317-19.287 19.317zm307.953-133.513c-9.196 0-16.679-7.483-16.679-16.68s7.482-16.68 16.679-16.68 16.68 7.482 16.68 16.68-7.483 16.68-16.68 16.68z"/><path d="m189.153 161.162v82.546c0 14.264 11.592 25.869 25.84 25.869 14.264 0 25.868-11.605 25.868-25.869v-82.546c0-14.264-11.604-25.869-25.868-25.869-14.248 0-25.84 11.604-25.84 25.869zm36.708 0v82.546c0 5.993-4.875 10.869-10.868 10.869-5.978 0-10.84-4.876-10.84-10.869v-82.546c0-5.993 4.862-10.869 10.84-10.869 5.993 0 10.868 4.875 10.868 10.869z"/><path d="m72.935 202.435c0 24.174 19.666 43.841 43.84 43.841 24.173 0 43.839-19.667 43.839-43.841s-19.666-43.841-43.839-43.841c-24.174 0-43.84 19.667-43.84 43.841zm72.678 0c0 15.903-12.938 28.841-28.839 28.841-15.902 0-28.84-12.938-28.84-28.841s12.938-28.841 28.84-28.841 28.839 12.938 28.839 28.841z"/></g><g><path clip-rule="evenodd" d="m303.745 221.937v-39.005c0-10.091-8.249-18.369-18.368-18.369-3.203 0-6.264.85-8.901 2.324 5.641 3.146 9.468 9.184 9.468 16.044v39.005c0 6.86-3.827 12.898-9.468 16.044 2.636 1.474 5.698 2.324 8.901 2.324 10.119.002 18.368-8.275 18.368-18.367z" fill="#7fdbae" fill-rule="evenodd"/></g><g><path d="m285.377 247.806c-14.248 0-25.84-11.604-25.84-25.869v-39.005c0-14.264 11.592-25.869 25.84-25.869 14.264 0 25.868 11.604 25.868 25.869v39.005c0 14.265-11.604 25.869-25.868 25.869zm0-75.742c-5.978 0-10.84 4.875-10.84 10.869v39.005c0 5.993 4.862 10.869 10.84 10.869 5.993 0 10.868-4.875 10.868-10.869v-39.005c0-5.994-4.875-10.869-10.868-10.869z"/></g></g></svg>