<?xml version="1.0" encoding="iso-8859-1"?>
<!-- Generator: Adobe Illustrator 19.0.0, SVG Export Plug-In . SVG Version: 6.00 Build 0)  -->
<svg version="1.1" id="Capa_1" xmlns="http://www.w3.org/2000/svg" xmlns:xlink="http://www.w3.org/1999/xlink" x="0px" y="0px"
	 viewBox="0 0 512.001 512.001" style="enable-background:new 0 0 512.001 512.001;" xml:space="preserve">
<path style="fill:#5A6B96;" d="M114.306,418.184c-23.354,0.002-48.991-15.182-55.985-33.157
	c-4.185-10.761-1.363-21.387,7.946-29.921c31.665-29.025,46.448-74.918,41.984-100.791c-1.156-6.701-4.228-15.405-12.296-18.82
	l1.249-3.802c9.437,2.253,19.416,4.233,29.659,5.883c27.434,4.433,56.861,6.68,87.464,6.68c3.256,0,6.19-0.022,8.972-0.069
	l2.041-0.034v4.05l-2.008,0.069c-8.598,0-15.966,3.004-22.526,9.182c-19.693,18.521-29.998,63.623-41.423,120.658
	C154.287,403.576,137.856,418.182,114.306,418.184z"/>
<path style="fill:#FF7D46;" d="M478.871,202.092c-13.833,0-25.088-11.259-25.088-25.098s11.255-25.098,25.088-25.098
	c13.839,0,25.098,11.259,25.098,25.098S492.71,202.092,478.871,202.092z"/>
<g>
	<path style="fill:#5A6B96;" d="M372.154,219.839v-89.008l2.793,1.188c29.875,12.701,45.665,28.253,45.665,44.977
		c0,16.68-15.703,32.198-45.411,44.875l-1.851,0.789L372.154,219.839z"/>
	<path style="fill:#5A6B96;" d="M333.302,118.607l2.493,0.621c14.572,3.631,27.744,7.931,39.152,12.779l1.223,0.52v86.495
		l0.872,2.059l-1.839,0.787c-11.349,4.858-24.607,9.199-39.406,12.902l-2.495,0.624V118.607z"/>
</g>
<path style="fill:#D4D4D4;" d="M318.474,260.461c-10.396,0-18.854-8.458-18.854-18.854V112.674c0-10.396,8.458-18.854,18.854-18.854
	c5.029,0,9.762,1.963,13.325,5.528c3.558,3.558,5.518,8.291,5.518,13.326v128.934C337.318,252.003,328.865,260.461,318.474,260.461z
	"/>
<path style="fill:#FF7D46;" d="M214.327,248.273c-30.816,0-60.459-2.265-88.104-6.731l-2.006-0.324l0.399-2.293V112.711l1.688-0.273
	c27.589-4.459,57.204-6.721,88.024-6.721c30.627,0,60.106,2.238,87.618,6.652l1.691,0.271v128.712l-1.69,0.272
	c-24.701,3.972-51.141,6.186-78.586,6.582C220.562,248.251,217.606,248.273,214.327,248.273z"/>
<path style="fill:#D4D4D4;" d="M126.224,241.542c-10.34-1.667-20.418-3.666-29.953-5.942c-9.148-2.191-17.883-4.664-25.958-7.357
	l-1.373-0.458V126.216l1.371-0.458c16.399-5.48,35.238-9.962,55.993-13.321l2.328-0.376v127.21l-0.45,2.586L126.224,241.542z"/>
<path style="fill:#5A6B96;" d="M61.028,210.898c-18.887,0-34.254-15.367-34.254-34.254c0-9.154,3.564-17.758,10.035-24.229
	c6.469-6.471,15.072-10.035,24.219-10.035h11.927v68.518H61.028z"/>
<path d="M478.871,143.865c-14.765,0-27.3,9.716-31.561,23.09h-20.17c-3.885-12.84-16.334-28.376-48.857-42.243
	c-0.066-0.03-0.128-0.066-0.195-0.094c-9.76-4.148-20.755-7.893-32.739-11.179v-0.764c0-7.181-2.795-13.93-7.87-19.006
	c-5.082-5.082-11.83-7.88-19.005-7.88c-11.405,0-21.167,7.142-25.067,17.185c-25.086-3.507-51.634-5.289-79.08-5.289
	c-31.247,0-61.293,2.296-89.307,6.825c-21.183,3.428-40.446,8.014-57.255,13.631c-4.096,1.368-6.858,5.203-6.858,9.521v6.689
	c-11.248,0.031-21.819,4.425-29.776,12.384c-5.565,5.564-9.383,12.408-11.19,19.869h-9.903C4.496,166.605,0,171.1,0,176.644
	s4.496,10.039,10.039,10.039h9.918c4.51,18.447,21.147,32.188,40.951,32.243v7.412c0,4.322,2.766,8.158,6.866,9.524
	c7.985,2.661,16.59,5.111,25.586,7.292c4.341,2.221,6.193,7.981,6.977,12.525c4.122,23.895-10.766,67.169-39.496,93.506
	c-12.446,11.409-15.764,26.312-9.1,40.888c9.447,20.668,36.988,36.138,62.62,36.138c2.343,0,4.674-0.129,6.969-0.397
	c23.875-2.773,40.616-19.585,45.928-46.124c8.097-40.421,15.971-76.372,27.02-98.878c4.461,13.736,12.956,30.288,29.077,41.264
	c1.73,1.179,3.695,1.742,5.641,1.742c3.21,0,6.365-1.536,8.306-4.39c3.12-4.583,1.936-10.828-2.648-13.949
	c-17.782-12.108-23.115-35.154-24.631-45.17c4.013-2.717,8.333-4.007,13.309-4.007c0.451,0,0.89-0.04,1.326-0.097
	c23.775-0.388,46.813-2.12,68.642-5.17c3.828,10.186,13.666,17.455,25.174,17.455c14.819,0,26.875-12.061,26.875-26.885v-1.05
	c12.181-3.346,23.268-7.133,33.004-11.301c32.481-13.859,44.907-29.39,48.789-42.223h20.169c4.262,13.374,16.797,23.09,31.561,23.09
	c18.267,0,33.129-14.862,33.129-33.129S497.138,143.865,478.871,143.865z M291.589,122.986v108.019
	c-21.682,3.079-44.649,4.81-68.425,5.152c-2.737,0.046-5.626,0.068-8.837,0.068c-27.031,0-53.102-1.79-77.663-5.298V123.063
	c24.535-3.509,50.607-5.3,77.663-5.3C241.198,117.763,267.146,119.519,291.589,122.986z M38.822,176.644
	c0-5.935,2.311-11.515,6.506-15.71c4.166-4.166,9.695-6.474,15.58-6.505v44.424C48.718,198.784,38.822,188.849,38.822,176.644z
	 M80.986,208.89v-64.502v-9.39c10.886-3.308,22.807-6.189,35.599-8.618v101.223c-5.991-1.137-11.86-2.373-17.509-3.722
	c-6.267-1.5-12.325-3.136-18.09-4.886V208.89z M147.57,375.749c-3.645,18.211-13.253,28.345-28.556,30.123
	c-20.311,2.353-43.023-11.043-49.012-24.145c-3.011-6.588-1.61-12.224,4.406-17.738c15.593-14.294,28.839-33.983,37.293-55.439
	c8.014-20.336,11.084-40.851,8.423-56.283c-0.226-1.309-0.49-2.554-0.782-3.751c1.861,0.324,3.722,0.651,5.602,0.954
	c19.558,3.16,40.108,5.208,61.334,6.176C168.116,279.04,158.253,322.416,147.57,375.749z M325.271,241.608
	c0,3.753-3.049,6.807-6.797,6.807c-3.753,0-6.807-3.054-6.807-6.807v-1.968V114.351v-1.677c0-3.753,3.054-6.807,6.807-6.807
	c1.811,0,3.519,0.71,4.807,1.999c1.282,1.282,1.989,2.991,1.989,4.808v128.934H325.271z M345.349,134.311
	c6.664,1.963,12.936,4.076,18.773,6.326v72.719c-5.808,2.241-12.079,4.355-18.773,6.328V134.311z M384.201,204.111v-54.228
	c15.651,8.728,24.365,18.283,24.365,27.111C408.566,185.822,399.852,195.382,384.201,204.111z M478.871,190.045
	c-7.191,0-13.041-5.855-13.041-13.051s5.85-13.051,13.041-13.051c7.196,0,13.051,5.855,13.051,13.051
	S486.067,190.045,478.871,190.045z"/>
<path d="M162.677,150.175c0.476,5.211,4.854,9.129,9.986,9.129c0.306,0,0.613-0.014,0.924-0.042
	c11.732-1.07,24.068-1.612,36.667-1.612c3.724,0,7.461,0.048,11.108,0.144c5.554,0.149,10.153-4.234,10.297-9.775
	c0.144-5.543-4.234-10.153-9.775-10.297c-3.821-0.099-7.734-0.149-11.63-0.149c-13.206,0-26.157,0.57-38.491,1.695
	C166.242,139.769,162.174,144.653,162.677,150.175z"/>
<path d="M251.984,159.878c12.919,0,12.941-20.078,0-20.078C239.065,139.799,239.044,159.878,251.984,159.878z"/>
<g>
</g>
<g>
</g>
<g>
</g>
<g>
</g>
<g>
</g>
<g>
</g>
<g>
</g>
<g>
</g>
<g>
</g>
<g>
</g>
<g>
</g>
<g>
</g>
<g>
</g>
<g>
</g>
<g>
</g>
</svg>
