<svg id="Layer_1" enable-background="new 0 0 512 512" viewBox="0 0 512 512" xmlns="http://www.w3.org/2000/svg"><g><g clip-rule="evenodd" fill-rule="evenodd"><path d="m442 163.505v45h37.5c12.375 0 22.5-10.125 22.5-22.501 0-12.375-10.125-22.499-22.5-22.499z" fill="#ff764e"/><path d="m396.003 236.005v-100c0-11-9-20-20-20s-20 9-20 20v100c0 11 9 20 20 20s20-9 20-20z" fill="#d1aee5"/><path d="m312.252 256.005v-140c0-11-9-20-20-20s-20 9-20 20v140c0 11 9 20 20 20s20-9 20-20z" fill="#d1aee5"/><path d="m107.02 144.74h122.98v-28.735c0-11-9-20-20-20h-110c-12.285 0-24.016 2.495-34.71 7.005z" fill="#b278d3"/><path d="m32.429 126.718c8.964-10.197 20.184-18.367 32.861-23.708l-21.172-21.172c-7.778-7.778-20.506-7.778-28.284 0s-7.778 20.506 0 28.284z" fill="#b278d3"/><path d="m65.289 103.008c-12.676 5.343-23.896 13.513-32.86 23.71-13.946 15.864-22.429 36.633-22.429 59.287 0 38.859 24.959 72.171 59.638 84.698 9.496 3.43 19.721 5.302 30.362 5.302h58.217 30 21.783c11 0 20-9 20-20v-111.265h-122.98zm84.709 112.996c0-11.046 8.954-20 20-20s20 8.954 20 20-8.954 20-20 20c-11.045 0-20-8.955-20-20z" fill="#d1aee5"/><ellipse cx="169.999" cy="216.004" fill="#ff764e" rx="20" ry="20" transform="matrix(.973 -.23 .23 .973 -45.08 44.836)"/><path d="m188.217 276.005h-30l-16.747 62.5h42.747c5.499 0 10.624-4.536 9.999-10z" fill="#ff764e"/><path d="m141.47 338.505 16.747-62.5h-58.217c-10.641 0-20.866-1.872-30.362-5.302l-38.934 145.302c-2.948 11 3.641 20 14.641 20h50 40c11 0 20-9 20-20s-9-20-20-20h-9.282z" fill="#b278d3"/></g><g><path d="m479.5 153.505h-37.5c-5.522 0-10 4.477-10 10v12.5h-25.996v-40c0-16.542-13.458-30-30.001-30-16.542 0-30 13.458-30 30v40h-23.751v-60c0-16.542-13.458-30-30-30s-30 13.458-30 30v60h-22.252v-60c0-16.542-13.458-30-30-30h-110c-11.275 0-22.119 1.878-32.239 5.333l-16.572-16.571c-11.698-11.697-30.73-11.695-42.427 0-5.65 5.651-8.762 13.185-8.762 21.213 0 8.029 3.112 15.563 8.763 21.213l10.239 10.239c-11.947 16.474-19.002 36.714-19.002 58.573 0 40.031 23.647 74.638 57.704 90.601l-36.659 136.811c-2.251 8.4-.793 16.801 4.001 23.047 4.652 6.063 12.052 9.541 20.3 9.541h90c16.542 0 30-13.458 30-30 0-15.293-11.502-27.95-26.311-29.774l10.109-37.726h35.074c5.835 0 11.407-2.494 15.286-6.843 3.592-4.025 5.242-9.102 4.648-14.292l-4.727-41.365h10.575c16.542 0 30-13.458 30-30v-60h22.252v60c0 16.542 13.458 30 30 30s30-13.458 30-30v-60h23.751v40c0 16.542 13.458 30 30 30 16.543 0 30.001-13.458 30.001-30v-40h25.996v12.5c0 5.523 4.478 10 10 10h37.5c17.921 0 32.5-14.58 32.5-32.5 0-17.921-14.579-32.5-32.5-32.5zm-456.595-64.595c3.899-3.9 10.244-3.898 14.142 0l11.424 11.424c-5.793 3.498-11.203 7.568-16.155 12.129l-9.411-9.411c-1.873-1.874-2.905-4.385-2.905-7.072 0-2.686 1.032-5.197 2.905-7.07zm122.441 327.095c0 5.514-4.486 10-10 10h-90c-1.422 0-3.345-.298-4.433-1.716-.978-1.274-1.178-3.351-.55-5.696l36.268-135.352c7.5 1.802 15.323 2.764 23.368 2.764h45.186l-28.781 107.412c-.805 3.003-.167 6.209 1.726 8.676s4.824 3.913 7.934 3.913h9.282c5.513-.001 10 4.485 10 9.999zm38.805-87.5h-29.648l11.388-42.5h13.403zm35.849-72.5c0 5.514-4.486 10-10 10h-110c-44.112 0-80-35.888-80-80 0-30.833 17.544-57.629 43.164-70.979l36.786 36.786c1.876 1.875 4.419 2.929 7.071 2.929h32.979c5.522 0 10-4.477 10-10s-4.478-10-10-10h-28.837l-27.131-27.131c5.162-1.05 10.501-1.604 15.968-1.604h110c5.514 0 10 4.486 10 10zm82.252 0c0 5.514-4.486 10-10 10s-10-4.486-10-10v-140c0-5.514 4.486-10 10-10s10 4.486 10 10zm83.752-20c0 5.514-4.486 10-10.001 10-5.514 0-10-4.486-10-10v-100c0-5.514 4.486-10 10-10 5.515 0 10.001 4.486 10.001 10zm93.496-37.5h-27.5v-25h27.5c6.893 0 12.5 5.607 12.5 12.5s-5.607 12.5-12.5 12.5z"/><path d="m169.999 186.003c-13.037 0-24.153 8.361-28.281 20h-34.698c-5.522 0-10 4.477-10 10s4.478 10 10 10h34.698c4.128 11.639 15.244 20 28.281 20 16.542 0 30-13.458 30-30s-13.458-30-30-30zm0 40.001c-5.515 0-10.001-4.486-10.001-10s4.486-10 10.001-10c5.514 0 10 4.486 10 10s-4.486 10-10 10z"/><path d="m185.004 154.741c5.522 0 10-4.477 10-10s-4.478-10-10-10h-.008c-5.522 0-9.996 4.477-9.996 10s4.481 10 10.004 10z"/></g></g></svg>