<svg id="_x33_0" enable-background="new 0 0 64 64" viewBox="0 0 64 64" xmlns="http://www.w3.org/2000/svg" xmlns:xlink="http://www.w3.org/1999/xlink"><linearGradient id="SVGID_1_" gradientUnits="userSpaceOnUse" x1="32" x2="32" y1="59" y2="5"><stop offset="0" stop-color="#9f2fff"/><stop offset="1" stop-color="#0bb1d3"/></linearGradient><path d="m12 19c-3.86 0-7 3.141-7 7s3.14 7 7 7 7-3.141 7-7-3.14-7-7-7zm0 12c-2.757 0-5-2.243-5-5s2.243-5 5-5 5 2.243 5 5-2.243 5-5 5zm49-12h-2c-1.103 0-2 .897-2 2h-2c0-1.103-.897-2-2-2h-6.685c-1.126-2.361-3.53-4-6.315-4-1.902 0-3.627.765-4.889 2h-2.111v-4h3c1.654 0 3-1.346 3-3 0-2.757-2.243-5-5-5h-14c-2.757 0-5 2.243-5 5 0 1.654 1.346 3 3 3h3v4h-2.674c-1.857-1.31-4.037-2-6.326-2-6.065 0-11 4.935-11 11s4.935 11 11 11c2.289 0 4.469-.69 6.326-2h.616c-.209 1.966-1.026 3.821-2.361 5.305l-5.707 6.341c-.563.625-.874 1.433-.874 2.276 0 .971.416 1.896 1.142 2.542l7.5 6.667c.631.56 1.443.869 2.287.869 1.691 0 3.12-1.211 3.397-2.879l1.375-8.253c.162-.97.389-1.925.651-2.868h4.648c3.309 0 6-2.691 6-6v-4h8c1.103 0 2-.897 2-2v-4h6c1.103 0 2-.897 2-2h2c0 1.103.897 2 2 2h2c1.103 0 2-.897 2-2v-6c0-1.103-.897-2-2-2zm-21-2c2.757 0 5 2.243 5 5s-2.243 5-5 5-5-2.243-5-5 2.243-5 5-5zm-19-10h12v4h-12zm16 3c0 .552-.449 1-1 1h-1v-3.816c1.161.414 2 1.514 2 2.816zm-20 0c0-1.302.839-2.402 2-2.816v3.816h-1c-.551 0-1-.448-1-1zm6 3h8v4h-8zm-5.333 20-.267.2c-1.567 1.178-3.434 1.8-5.4 1.8-4.962 0-9-4.037-9-9s4.038-9 9-9c1.966 0 3.833.622 5.4 1.8l.267.2h16.018c-.434.911-.685 1.926-.685 3 0 .34.033.672.08 1h-6.08v2h6.685c.335.701.778 1.34 1.315 1.889v.111h-10v2h10v4zm7.346 9.599-1.685-1.685c-.208-.209-.328-.498-.328-.793 0-.618.503-1.121 1.121-1.121.3 0 .581.116.793.328l.995.995c-.332.745-.626 1.505-.896 2.276zm-4.084 14.401c-.354 0-.695-.13-.959-.364l-7.499-6.666c-.3-.267-.471-.649-.471-1.048 0-.347.127-.68.36-.938l5.708-6.342c1.667-1.852 2.671-4.181 2.887-6.643h8.009c-.788 1.092-1.497 2.236-2.129 3.42l-.506-.506c-.59-.589-1.374-.913-2.208-.913-1.721 0-3.121 1.4-3.121 3.121 0 .822.333 1.626.914 2.207l2.433 2.433c-.245.916-.461 1.84-.618 2.779l-.111.665-1.291-1.291c-.588-.59-1.372-.914-2.206-.914-1.721 0-3.121 1.4-3.121 3.121 0 .822.333 1.626.914 2.207l4.443 4.443-.004.021c-.116.7-.715 1.208-1.424 1.208zm10.071-21.373v3.373h-2.203c.648-1.175 1.388-2.3 2.203-3.373zm-8.238 17.721-3.433-3.433c-.209-.21-.329-.499-.329-.794 0-.618.503-1.121 1.121-1.121.3 0 .581.116.793.328l2.301 2.301zm12.238-14.348c0 2.206-1.794 4-4 4h-4.011c.244-.676.508-1.345.804-2h3.207c1.103 0 2-.897 2-2v-4h2zm8-6v-2h-2v2h-4v-4.685c.911.434 1.925.685 3 .685 1.958 0 3.728-.81 5-2.111v6.111zm4-11c0-.34-.033-.672-.08-1h2.08v6h-2zm6 5h-2v-6h2zm2-2v-2h2v2zm4 2v-6h2l.001 6zm-38 0h2v2h-2zm4-2h-2v-2h2zm-13-2v2c-.551 0-1 .448-1 1s.449 1 1 1v2c-1.654 0-3-1.346-3-3s1.346-3 3-3zm28 2v-2c.551 0 1-.448 1-1s-.449-1-1-1v-2c1.654 0 3 1.346 3 3s-1.346 3-3 3z" fill="url(#SVGID_1_)"/></svg>